<svg xmlns="http://www.w3.org/2000/svg" width="1200" height="900" font-family="-apple-system,BlinkMacSystemFont,'Segoe UI',Roboto,sans-serif">
  <defs>
    <filter id="shadow" x="-2%" y="-2%" width="104%" height="104%">
      <feDropShadow dx="0" dy="2" stdDeviation="4" flood-color="#000" flood-opacity="0.3"/>
    </filter>
    <linearGradient id="accent" x1="0" y1="0" x2="1" y2="1">
      <stop offset="0%" stop-color="#6366f1"/>
      <stop offset="100%" stop-color="#818cf8"/>
    </linearGradient>
  </defs>

  <rect width="1200" height="900" fill="#0f1117"/>

  <!-- Header -->
  <text x="32" y="40" fill="#fff" font-size="20" font-weight="700">🤖 Agent 详情</text>
  <text x="186" y="40" fill="#6b7280" font-size="13">Agent Detail</text>

  <!-- Agent Profile Header -->
  <g transform="translate(24,58)">
    <rect width="1152" height="80" rx="12" fill="#1a1b23" filter="url(#shadow)"/>
    <!-- Avatar circle -->
    <rect x="16" y="14" width="52" height="52" rx="12" fill="#6366f120"/>
    <text x="42" y="48" fill="#818cf8" font-size="24" text-anchor="middle">⌨️</text>
    <!-- Name & status -->
    <text x="80" y="34" fill="#fff" font-size="18" font-weight="700">Dev Agent</text>
    <rect x="192" y="18" width="72" height="24" rx="6" fill="#22c55e20"/>
    <text x="228" y="35" fill="#22c55e" font-size="11" text-anchor="middle" font-weight="500">Working</text>
    <text x="80" y="56" fill="#9ca3af" font-size="12">当前任务: <tspan fill="#c4b5fd">Build weather app</tspan> · Master 模式 · 8m 12s</text>
    <!-- Actions -->
    <rect x="920" y="22" width="90" height="32" rx="8" fill="#374151"/>
    <text x="965" y="43" fill="#d1d5db" font-size="11" text-anchor="middle">编辑配置</text>
    <rect x="1020" y="22" width="110" height="32" rx="8" fill="#ef444430" stroke="#ef4444" stroke-width="1"/>
    <text x="1075" y="43" fill="#ef4444" font-size="11" text-anchor="middle">停止 Agent</text>
  </g>

  <!-- Stats Cards -->
  <g transform="translate(24,154)">
    <!-- Tasks Completed -->
    <rect width="275" height="80" rx="12" fill="#1a1b23" filter="url(#shadow)"/>
    <text x="20" y="28" fill="#9ca3af" font-size="11">已完成任务</text>
    <text x="20" y="58" fill="#fff" font-size="28" font-weight="700">47</text>
    <text x="80" y="58" fill="#22c55e" font-size="12">↑ 12 本周</text>

    <!-- Success Rate -->
    <g transform="translate(291,0)">
      <rect width="275" height="80" rx="12" fill="#1a1b23" filter="url(#shadow)"/>
      <text x="20" y="28" fill="#9ca3af" font-size="11">成功率</text>
      <text x="20" y="58" fill="#fff" font-size="28" font-weight="700">94%</text>
      <text x="80" y="58" fill="#22c55e" font-size="12">↑ 2%</text>
    </g>

    <!-- Avg Duration -->
    <g transform="translate(582,0)">
      <rect width="275" height="80" rx="12" fill="#1a1b23" filter="url(#shadow)"/>
      <text x="20" y="28" fill="#9ca3af" font-size="11">平均耗时</text>
      <text x="20" y="58" fill="#fff" font-size="28" font-weight="700">3m 12s</text>
    </g>

    <!-- Total Cost -->
    <g transform="translate(873,0)">
      <rect width="275" height="80" rx="12" fill="#1a1b23" filter="url(#shadow)"/>
      <text x="20" y="28" fill="#9ca3af" font-size="11">总消耗</text>
      <text x="20" y="58" fill="#fff" font-size="28" font-weight="700">$12.80</text>
    </g>
  </g>

  <!-- Performance Chart -->
  <g transform="translate(24,250)">
    <rect width="700" height="240" rx="12" fill="#1a1b23" filter="url(#shadow)"/>
    <text x="20" y="28" fill="#fff" font-size="13" font-weight="600">📊 任务完成趋势 (近 7 天)</text>

    <!-- Y axis labels -->
    <text x="36" y="60" fill="#6b7280" font-size="10" text-anchor="end">10</text>
    <text x="36" y="100" fill="#6b7280" font-size="10" text-anchor="end">8</text>
    <text x="36" y="140" fill="#6b7280" font-size="10" text-anchor="end">6</text>
    <text x="36" y="180" fill="#6b7280" font-size="10" text-anchor="end">4</text>
    <text x="36" y="220" fill="#6b7280" font-size="10" text-anchor="end">2</text>
    <!-- Grid lines -->
    <line x1="44" y1="56" x2="680" y2="56" stroke="#374151" stroke-width="0.5"/>
    <line x1="44" y1="96" x2="680" y2="96" stroke="#374151" stroke-width="0.5"/>
    <line x1="44" y1="136" x2="680" y2="136" stroke="#374151" stroke-width="0.5"/>
    <line x1="44" y1="176" x2="680" y2="176" stroke="#374151" stroke-width="0.5"/>
    <line x1="44" y1="216" x2="680" y2="216" stroke="#374151" stroke-width="0.5"/>

    <!-- Bars -->
    <rect x="80" y="136" width="60" height="80" rx="4" fill="#6366f1" opacity="0.7"/>
    <text x="110" y="230" fill="#6b7280" font-size="10" text-anchor="middle">Mon</text>
    <rect x="170" y="96" width="60" height="120" rx="4" fill="#6366f1" opacity="0.7"/>
    <text x="200" y="230" fill="#6b7280" font-size="10" text-anchor="middle">Tue</text>
    <rect x="260" y="116" width="60" height="100" rx="4" fill="#6366f1" opacity="0.7"/>
    <text x="290" y="230" fill="#6b7280" font-size="10" text-anchor="middle">Wed</text>
    <rect x="350" y="76" width="60" height="140" rx="4" fill="#6366f1" opacity="0.7"/>
    <text x="380" y="230" fill="#6b7280" font-size="10" text-anchor="middle">Thu</text>
    <rect x="440" y="136" width="60" height="80" rx="4" fill="#6366f1" opacity="0.7"/>
    <text x="470" y="230" fill="#6b7280" font-size="10" text-anchor="middle">Fri</text>
    <rect x="530" y="156" width="60" height="60" rx="4" fill="#6366f1" opacity="0.5"/>
    <text x="560" y="230" fill="#6b7280" font-size="10" text-anchor="middle">Sat</text>
    <rect x="620" y="176" width="60" height="40" rx="4" fill="#6366f1" opacity="0.3"/>
    <text x="650" y="230" fill="#6b7280" font-size="10" text-anchor="middle">Sun</text>
  </g>

  <!-- Config Panel -->
  <g transform="translate(740,250)">
    <rect width="436" height="240" rx="12" fill="#1a1b23" filter="url(#shadow)"/>
    <text x="20" y="28" fill="#fff" font-size="13" font-weight="600">⚙️ 配置</text>

    <text x="20" y="56" fill="#9ca3af" font-size="11">Model</text>
    <rect x="140" y="42" width="276" height="24" rx="6" fill="#0f1117" stroke="#374151" stroke-width="1"/>
    <text x="152" y="58" fill="#c4b5fd" font-size="11" font-family="'SF Mono',monospace">claude-sonnet-4-20250514</text>

    <text x="20" y="88" fill="#9ca3af" font-size="11">Max Concurrent</text>
    <rect x="140" y="74" width="276" height="24" rx="6" fill="#0f1117" stroke="#374151" stroke-width="1"/>
    <text x="152" y="90" fill="#d1d5db" font-size="11">1</text>

    <text x="20" y="120" fill="#9ca3af" font-size="11">Timeout</text>
    <rect x="140" y="106" width="276" height="24" rx="6" fill="#0f1117" stroke="#374151" stroke-width="1"/>
    <text x="152" y="122" fill="#d1d5db" font-size="11">300s</text>

    <text x="20" y="152" fill="#9ca3af" font-size="11">Workdir</text>
    <rect x="140" y="138" width="276" height="24" rx="6" fill="#0f1117" stroke="#374151" stroke-width="1"/>
    <text x="152" y="154" fill="#d1d5db" font-size="11" font-family="'SF Mono',monospace">/workspace/projects</text>

    <text x="20" y="184" fill="#9ca3af" font-size="11">Skills</text>
    <rect x="140" y="170" width="80" height="22" rx="6" fill="#6366f120"/>
    <text x="180" y="186" fill="#818cf8" font-size="10" text-anchor="middle">coding</text>
    <rect x="226" y="170" width="80" height="22" rx="6" fill="#6366f120"/>
    <text x="266" y="186" fill="#818cf8" font-size="10" text-anchor="middle">debugging</text>
    <rect x="312" y="170" width="60" height="22" rx="6" fill="#6366f120"/>
    <text x="342" y="186" fill="#818cf8" font-size="10" text-anchor="middle">git</text>

    <text x="20" y="218" fill="#9ca3af" font-size="11">Auto-approve gates:</text>
    <rect x="160" y="204" width="40" height="22" rx="11" fill="#22c55e"/>
    <circle cx="188" cy="215" r="8" fill="#fff"/>
    <text x="210" y="218" fill="#22c55e" font-size="11">开启</text>
  </g>

  <!-- Recent Tasks Table -->
  <g transform="translate(24,506)">
    <rect width="1152" height="240" rx="12" fill="#1a1b23" filter="url(#shadow)"/>
    <text x="20" y="28" fill="#fff" font-size="13" font-weight="600">📋 最近任务</text>

    <!-- Table Header -->
    <g transform="translate(20,44)">
      <text x="0" y="14" fill="#6b7280" font-size="11" font-weight="600">任务名称</text>
      <text x="380" y="14" fill="#6b7280" font-size="11" font-weight="600">模式</text>
      <text x="500" y="14" fill="#6b7280" font-size="11" font-weight="600">耗时</text>
      <text x="620" y="14" fill="#6b7280" font-size="11" font-weight="600">状态</text>
      <text x="760" y="14" fill="#6b7280" font-size="11" font-weight="600">Token</text>
      <text x="880" y="14" fill="#6b7280" font-size="11" font-weight="600">费用</text>
      <text x="980" y="14" fill="#6b7280" font-size="11" font-weight="600">时间</text>
    </g>
    <line x1="20" y1="66" x2="1132" y2="66" stroke="#374151" stroke-width="0.5"/>

    <!-- Row 1 (active) -->
    <g transform="translate(20,74)">
      <rect x="-8" y="-4" width="1128" height="32" rx="4" fill="#6366f108"/>
      <text x="0" y="16" fill="#c4b5fd" font-size="12">Build weather app</text>
      <rect x="380" y="2" width="56" height="20" rx="5" fill="#f59e0b20"/>
      <text x="408" y="16" fill="#f59e0b" font-size="10" text-anchor="middle">Master</text>
      <text x="500" y="16" fill="#d1d5db" font-size="12">8m 12s</text>
      <rect x="620" y="2" width="60" height="20" rx="5" fill="#22c55e20"/>
      <text x="650" y="16" fill="#22c55e" font-size="10" text-anchor="middle">Running</text>
      <text x="760" y="16" fill="#d1d5db" font-size="12">14.3k</text>
      <text x="880" y="16" fill="#d1d5db" font-size="12">$0.42</text>
      <text x="980" y="16" fill="#6b7280" font-size="12">进行中</text>
    </g>

    <!-- Row 2 -->
    <g transform="translate(20,110)">
      <text x="0" y="16" fill="#d1d5db" font-size="12">Fix login redirect</text>
      <rect x="380" y="2" width="50" height="20" rx="5" fill="#22c55e20"/>
      <text x="405" y="16" fill="#22c55e" font-size="10" text-anchor="middle">Direct</text>
      <text x="500" y="16" fill="#d1d5db" font-size="12">4m 22s</text>
      <rect x="620" y="2" width="60" height="20" rx="5" fill="#6b728030"/>
      <text x="650" y="16" fill="#22c55e" font-size="10" text-anchor="middle">Done ✓</text>
      <text x="760" y="16" fill="#d1d5db" font-size="12">5.8k</text>
      <text x="880" y="16" fill="#d1d5db" font-size="12">$0.18</text>
      <text x="980" y="16" fill="#6b7280" font-size="12">2 分钟前</text>
    </g>

    <!-- Row 3 -->
    <g transform="translate(20,146)">
      <text x="0" y="16" fill="#d1d5db" font-size="12">数据库迁移脚本</text>
      <rect x="380" y="2" width="62" height="20" rx="5" fill="#6366f120"/>
      <text x="411" y="16" fill="#818cf8" font-size="10" text-anchor="middle">Pipeline</text>
      <text x="500" y="16" fill="#d1d5db" font-size="12">12m 40s</text>
      <rect x="620" y="2" width="60" height="20" rx="5" fill="#6b728030"/>
      <text x="650" y="16" fill="#22c55e" font-size="10" text-anchor="middle">Done ✓</text>
      <text x="760" y="16" fill="#d1d5db" font-size="12">18.2k</text>
      <text x="880" y="16" fill="#d1d5db" font-size="12">$0.56</text>
      <text x="980" y="16" fill="#6b7280" font-size="12">1 小时前</text>
    </g>

    <!-- Row 4 -->
    <g transform="translate(20,182)">
      <text x="0" y="16" fill="#d1d5db" font-size="12">Refactor API client</text>
      <rect x="380" y="2" width="56" height="20" rx="5" fill="#f59e0b20"/>
      <text x="408" y="16" fill="#f59e0b" font-size="10" text-anchor="middle">Master</text>
      <text x="500" y="16" fill="#d1d5db" font-size="12">6m 05s</text>
      <rect x="620" y="2" width="60" height="20" rx="5" fill="#6b728030"/>
      <text x="650" y="16" fill="#22c55e" font-size="10" text-anchor="middle">Done ✓</text>
      <text x="760" y="16" fill="#d1d5db" font-size="12">9.1k</text>
      <text x="880" y="16" fill="#d1d5db" font-size="12">$0.28</text>
      <text x="980" y="16" fill="#6b7280" font-size="12">3 小时前</text>
    </g>

    <!-- Row 5 -->
    <g transform="translate(20,218)">
      <text x="0" y="16" fill="#ef4444" font-size="12">Parse CSV upload</text>
      <rect x="380" y="2" width="50" height="20" rx="5" fill="#22c55e20"/>
      <text x="405" y="16" fill="#22c55e" font-size="10" text-anchor="middle">Direct</text>
      <text x="500" y="16" fill="#d1d5db" font-size="12">5m 30s</text>
      <rect x="620" y="2" width="60" height="20" rx="5" fill="#ef444430"/>
      <text x="650" y="16" fill="#ef4444" font-size="10" text-anchor="middle">Failed ✕</text>
      <text x="760" y="16" fill="#d1d5db" font-size="12">7.4k</text>
      <text x="880" y="16" fill="#d1d5db" font-size="12">$0.22</text>
      <text x="980" y="16" fill="#6b7280" font-size="12">昨天</text>
    </g>
  </g>

  <!-- SKILL.md Preview (collapsed) -->
  <g transform="translate(24,762)">
    <rect width="1152" height="44" rx="12" fill="#1a1b23" filter="url(#shadow)"/>
    <text x="20" y="28" fill="#9ca3af" font-size="12">📄 SKILL.md</text>
    <text x="120" y="28" fill="#6b7280" font-size="11">coding-agent/SKILL.md · 2.4 KB</text>
    <text x="1120" y="28" fill="#6b7280" font-size="14" text-anchor="end">▸</text>
  </g>

  <!-- Bottom nav -->
  <text x="600" y="888" fill="#374151" font-size="11" text-anchor="middle">Overview · Tasks · Pipelines · Agents · Settings</text>
  <rect x="586" y="878" width="48" height="2" rx="1" fill="#6366f1"/>
</svg>