<svg xmlns="http://www.w3.org/2000/svg" width="1440" height="900" font-family="-apple-system,BlinkMacSystemFont,'Segoe UI',Roboto,sans-serif">
  <defs>
    <filter id="shadow" x="-2%" y="-2%" width="104%" height="104%">
      <feDropShadow dx="0" dy="2" stdDeviation="4" flood-color="#000" flood-opacity="0.3"/>
    </filter>
    <clipPath id="clip-main"><rect x="208" y="0" width="832" height="844"/></clipPath>
    <clipPath id="clip-right"><rect x="1040" y="0" width="400" height="844"/></clipPath>
  </defs>

  <!-- Background -->
  <rect width="1440" height="900" fill="#0f1117"/>

  <!-- ============================================ -->
  <!-- LEFT SIDEBAR (w=208)                         -->
  <!-- ============================================ -->
  <rect x="0" y="0" width="208" height="900" fill="#1a1b23"/>
  <line x1="208" y1="0" x2="208" y2="900" stroke="#2a2b35" stroke-width="1"/>

  <!-- Brand -->
  <text x="20" y="34" fill="#fff" font-size="15" font-weight="700">🏭 Agent Factory</text>
  <circle cx="176" cy="28" r="4" fill="#22c55e"/>
  <text x="186" y="32" fill="#6b7280" font-size="9">5 active</text>
  <line x1="0" y1="52" x2="208" y2="52" stroke="#2a2b35" stroke-width="1"/>

  <!-- Group: Core -->
  <text x="16" y="74" fill="#6b7280" font-size="9" font-weight="700" letter-spacing="1">CORE</text>

  <!-- Agent items in sidebar -->
  <!-- Master (selected) -->
  <rect x="8" y="82" width="192" height="36" rx="8" fill="#6366f118"/>
  <text x="20" y="105" fill="#fff" font-size="13">🧠</text>
  <text x="42" y="103" fill="#c4b5fd" font-size="12" font-weight="600">Master Agent</text>
  <circle cx="188" cy="100" r="3.5" fill="#22c55e"/>

  <!-- PM -->
  <text x="20" y="137" fill="#e5e7eb" font-size="13">🎯</text>
  <text x="42" y="135" fill="#9ca3af" font-size="12">PM Agent</text>
  <circle cx="188" cy="132" r="3.5" fill="#22c55e"/>

  <!-- UI -->
  <text x="20" y="165" fill="#e5e7eb" font-size="13">🎨</text>
  <text x="42" y="163" fill="#9ca3af" font-size="12">UI Agent</text>
  <circle cx="188" cy="160" r="3.5" fill="#3b82f6">
    <animate attributeName="opacity" values="1;0.3;1" dur="1.5s" repeatCount="indefinite"/>
  </circle>

  <!-- Dev -->
  <text x="20" y="193" fill="#e5e7eb" font-size="13">⌨️</text>
  <text x="42" y="191" fill="#9ca3af" font-size="12">Dev Agent</text>
  <circle cx="188" cy="188" r="3.5" fill="#22c55e"/>

  <!-- QA -->
  <text x="20" y="221" fill="#e5e7eb" font-size="13">🔍</text>
  <text x="42" y="219" fill="#9ca3af" font-size="12">QA Agent</text>
  <circle cx="188" cy="216" r="3.5" fill="#6b7280"/>

  <!-- Ops -->
  <text x="20" y="249" fill="#e5e7eb" font-size="13">🚀</text>
  <text x="42" y="247" fill="#9ca3af" font-size="12">Ops Agent</text>
  <circle cx="188" cy="244" r="3.5" fill="#6b7280"/>

  <!-- Review -->
  <text x="20" y="277" fill="#e5e7eb" font-size="13">📝</text>
  <text x="42" y="275" fill="#9ca3af" font-size="12">Review Agent</text>
  <circle cx="188" cy="272" r="3.5" fill="#22c55e"/>

  <!-- Group: Content -->
  <text x="16" y="312" fill="#6b7280" font-size="9" font-weight="700" letter-spacing="1">CONTENT</text>

  <text x="20" y="337" fill="#e5e7eb" font-size="13">✍️</text>
  <text x="42" y="335" fill="#9ca3af" font-size="12">公众号写手</text>
  <circle cx="188" cy="332" r="3.5" fill="#6b7280"/>

  <text x="20" y="365" fill="#e5e7eb" font-size="13">📕</text>
  <text x="42" y="363" fill="#9ca3af" font-size="12">小红书写手</text>
  <circle cx="188" cy="360" r="3.5" fill="#6b7280"/>

  <!-- Group: Tools -->
  <text x="16" y="400" fill="#6b7280" font-size="9" font-weight="700" letter-spacing="1">TOOLS</text>

  <text x="20" y="425" fill="#e5e7eb" font-size="13">🌍</text>
  <text x="42" y="423" fill="#9ca3af" font-size="12">i18n Agent</text>
  <circle cx="188" cy="420" r="3.5" fill="#6b7280"/>

  <text x="20" y="453" fill="#e5e7eb" font-size="13">🗄️</text>
  <text x="42" y="451" fill="#9ca3af" font-size="12">DB Migration</text>
  <circle cx="188" cy="448" r="3.5" fill="#6b7280"/>

  <text x="20" y="481" fill="#e5e7eb" font-size="13">🔌</text>
  <text x="42" y="479" fill="#9ca3af" font-size="12">API Design</text>
  <circle cx="188" cy="476" r="3.5" fill="#6b7280"/>

  <text x="20" y="509" fill="#e5e7eb" font-size="13">📚</text>
  <text x="42" y="507" fill="#9ca3af" font-size="12">Doc Writer</text>
  <circle cx="188" cy="504" r="3.5" fill="#6b7280"/>

  <!-- Bottom view toggles -->
  <line x1="0" y1="790" x2="208" y2="790" stroke="#2a2b35" stroke-width="1"/>
  <rect x="8" y="800" width="192" height="30" rx="8" fill="#6366f118"/>
  <text x="20" y="820" fill="#c4b5fd" font-size="11" font-weight="600">📊 Factory</text>
  <text x="20" y="848" fill="#6b7280" font-size="11">🔗 Orchestrator</text>
  <text x="20" y="872" fill="#6b7280" font-size="11">📋 Tasks</text>

  <!-- ============================================ -->
  <!-- CENTER MAIN AREA (x=208, w=832)              -->
  <!-- ============================================ -->

  <!-- Title -->
  <text x="232" y="36" fill="#fff" font-size="18" font-weight="700">Agent Factory</text>
  <text x="232" y="54" fill="#6b7280" font-size="11">Click any agent to start chatting</text>

  <!-- ── Core Group ── -->
  <text x="232" y="84" fill="#6b7280" font-size="10" font-weight="700" letter-spacing="0.8">CORE</text>
  <line x1="270" y1="80" x2="1020" y2="80" stroke="#2a2b35" stroke-width="0.5"/>
  <text x="1010" y="84" fill="#4b5563" font-size="9" text-anchor="end">7 agents</text>

  <!-- Card 1: Master Agent (selected) -->
  <g transform="translate(232,94)">
    <rect width="250" height="172" rx="12" fill="#1a1b23" stroke="#6366f1" stroke-width="1.5" filter="url(#shadow)"/>
    <!-- header -->
    <rect x="12" y="12" width="36" height="36" rx="8" fill="#0f1117"/>
    <text x="30" y="37" fill="#fff" font-size="18" text-anchor="middle">🧠</text>
    <text x="58" y="28" fill="#fff" font-size="13" font-weight="600">Master Agent</text>
    <text x="58" y="42" fill="#6b7280" font-size="10">orchestrator</text>
    <circle cx="220" cy="28" r="4" fill="#22c55e"/>
    <text x="210" y="32" fill="#22c55e" font-size="9" text-anchor="end">idle</text>
    <!-- desc -->
    <text x="12" y="66" fill="#9ca3af" font-size="10">任务分解与调度，自动将复杂需求拆</text>
    <text x="12" y="78" fill="#9ca3af" font-size="10">解为子任务并分配给专业 Agent</text>
    <!-- stats -->
    <text x="12" y="102" fill="#22c55e" font-size="10" font-weight="600">12 <tspan fill="#6b7280" font-weight="400">done</tspan></text>
    <text x="74" y="102" fill="#ef4444" font-size="10" font-weight="600">1 <tspan fill="#6b7280" font-weight="400">failed</tspan></text>
    <text x="130" y="102" fill="#6b7280" font-size="10">~45s</text>
    <!-- buttons -->
    <rect x="12" y="116" width="108" height="28" rx="6" fill="#6366f118"/>
    <text x="66" y="134" fill="#818cf8" font-size="10" text-anchor="middle" font-weight="500">💬 Chat</text>
    <rect x="128" y="116" width="108" height="28" rx="6" fill="#22232d"/>
    <text x="182" y="134" fill="#9ca3af" font-size="10" text-anchor="middle" font-weight="500">📋 History</text>
  </g>

  <!-- Card 2: PM Agent -->
  <g transform="translate(494,94)">
    <rect width="250" height="172" rx="12" fill="#1a1b23" stroke="#2a2b35" stroke-width="1" filter="url(#shadow)"/>
    <rect x="12" y="12" width="36" height="36" rx="8" fill="#0f1117"/>
    <text x="30" y="37" fill="#fff" font-size="18" text-anchor="middle">🎯</text>
    <text x="58" y="28" fill="#fff" font-size="13" font-weight="600">PM Agent</text>
    <text x="58" y="42" fill="#6b7280" font-size="10">product-manager</text>
    <circle cx="220" cy="28" r="4" fill="#22c55e"/>
    <text x="210" y="32" fill="#22c55e" font-size="9" text-anchor="end">idle</text>
    <text x="12" y="66" fill="#9ca3af" font-size="10">需求分析、PRD 编写、用户故事</text>
    <text x="12" y="78" fill="#9ca3af" font-size="10">验收标准</text>
    <text x="12" y="102" fill="#22c55e" font-size="10" font-weight="600">8 <tspan fill="#6b7280" font-weight="400">done</tspan></text>
    <text x="64" y="102" fill="#ef4444" font-size="10" font-weight="600">0 <tspan fill="#6b7280" font-weight="400">failed</tspan></text>
    <text x="120" y="102" fill="#6b7280" font-size="10">~32s</text>
    <rect x="12" y="116" width="108" height="28" rx="6" fill="#6366f118"/>
    <text x="66" y="134" fill="#818cf8" font-size="10" text-anchor="middle" font-weight="500">💬 Chat</text>
    <rect x="128" y="116" width="108" height="28" rx="6" fill="#22232d"/>
    <text x="182" y="134" fill="#9ca3af" font-size="10" text-anchor="middle" font-weight="500">📋 History</text>
  </g>

  <!-- Card 3: UI Agent (working) -->
  <g transform="translate(756,94)">
    <rect width="250" height="172" rx="12" fill="#1a1b23" stroke="#2a2b35" stroke-width="1" filter="url(#shadow)"/>
    <rect x="12" y="12" width="36" height="36" rx="8" fill="#0f1117"/>
    <text x="30" y="37" fill="#fff" font-size="18" text-anchor="middle">🎨</text>
    <text x="58" y="28" fill="#fff" font-size="13" font-weight="600">UI Agent</text>
    <text x="58" y="42" fill="#6b7280" font-size="10">designer</text>
    <circle cx="220" cy="28" r="4" fill="#3b82f6">
      <animate attributeName="opacity" values="1;0.3;1" dur="1.5s" repeatCount="indefinite"/>
    </circle>
    <text x="200" y="32" fill="#3b82f6" font-size="9" text-anchor="end">working</text>
    <text x="12" y="66" fill="#9ca3af" font-size="10">UI/UX 设计规范、组件层级</text>
    <text x="12" y="78" fill="#9ca3af" font-size="10">Design Token、响应式策略</text>
    <!-- working task indicator -->
    <rect x="12" y="90" width="226" height="22" rx="6" fill="#3b82f610" stroke="#3b82f630" stroke-width="0.5"/>
    <circle cx="22" cy="101" r="2.5" fill="#3b82f6">
      <animate attributeName="opacity" values="1;0.3;1" dur="1s" repeatCount="indefinite"/>
    </circle>
    <text x="30" y="105" fill="#93c5fd" font-size="9">Working on task...</text>
    <rect x="12" y="120" width="108" height="28" rx="6" fill="#6366f118"/>
    <text x="66" y="138" fill="#818cf8" font-size="10" text-anchor="middle" font-weight="500">💬 Chat</text>
    <rect x="128" y="120" width="108" height="28" rx="6" fill="#22232d"/>
    <text x="182" y="138" fill="#9ca3af" font-size="10" text-anchor="middle" font-weight="500">📋 History</text>
  </g>

  <!-- Row 2: Dev, QA, Ops -->
  <!-- Card 4: Dev Agent -->
  <g transform="translate(232,278)">
    <rect width="250" height="152" rx="12" fill="#1a1b23" stroke="#2a2b35" stroke-width="1"/>
    <rect x="12" y="12" width="36" height="36" rx="8" fill="#0f1117"/>
    <text x="30" y="37" fill="#fff" font-size="18" text-anchor="middle">⌨️</text>
    <text x="58" y="28" fill="#fff" font-size="13" font-weight="600">Dev Agent</text>
    <text x="58" y="42" fill="#6b7280" font-size="10">developer</text>
    <circle cx="220" cy="28" r="4" fill="#22c55e"/>
    <text x="12" y="66" fill="#9ca3af" font-size="10">全栈开发，TypeScript + React</text>
    <text x="12" y="82" fill="#22c55e" font-size="10" font-weight="600">47 <tspan fill="#6b7280" font-weight="400">done</tspan></text>
    <text x="80" y="82" fill="#ef4444" font-size="10" font-weight="600">3 <tspan fill="#6b7280" font-weight="400">failed</tspan></text>
    <text x="130" y="82" fill="#6b7280" font-size="10">~3m 12s</text>
    <rect x="12" y="98" width="108" height="28" rx="6" fill="#6366f118"/>
    <text x="66" y="116" fill="#818cf8" font-size="10" text-anchor="middle" font-weight="500">💬 Chat</text>
    <rect x="128" y="98" width="108" height="28" rx="6" fill="#22232d"/>
    <text x="182" y="116" fill="#9ca3af" font-size="10" text-anchor="middle" font-weight="500">📋 History</text>
  </g>

  <!-- Card 5: QA Agent (offline) -->
  <g transform="translate(494,278)">
    <rect width="250" height="152" rx="12" fill="#1a1b23" stroke="#2a2b35" stroke-width="1" opacity="0.7"/>
    <rect x="12" y="12" width="36" height="36" rx="8" fill="#0f1117"/>
    <text x="30" y="37" fill="#fff" font-size="18" text-anchor="middle">🔍</text>
    <text x="58" y="28" fill="#fff" font-size="13" font-weight="600">QA Agent</text>
    <text x="58" y="42" fill="#6b7280" font-size="10">tester</text>
    <circle cx="220" cy="28" r="4" fill="#6b7280"/>
    <text x="200" y="32" fill="#6b7280" font-size="9" text-anchor="end">offline</text>
    <text x="12" y="66" fill="#9ca3af" font-size="10">测试用例编写、单元测试</text>
    <text x="12" y="82" fill="#22c55e" font-size="10" font-weight="600">5 <tspan fill="#6b7280" font-weight="400">done</tspan></text>
    <text x="64" y="82" fill="#ef4444" font-size="10" font-weight="600">0 <tspan fill="#6b7280" font-weight="400">failed</tspan></text>
    <rect x="12" y="98" width="226" height="28" rx="6" fill="#22c55e18"/>
    <text x="125" y="116" fill="#22c55e" font-size="10" text-anchor="middle" font-weight="500">Start Agent</text>
  </g>

  <!-- Card 6: Ops Agent -->
  <g transform="translate(756,278)">
    <rect width="250" height="152" rx="12" fill="#1a1b23" stroke="#2a2b35" stroke-width="1" opacity="0.7"/>
    <rect x="12" y="12" width="36" height="36" rx="8" fill="#0f1117"/>
    <text x="30" y="37" fill="#fff" font-size="18" text-anchor="middle">🚀</text>
    <text x="58" y="28" fill="#fff" font-size="13" font-weight="600">Ops Agent</text>
    <text x="58" y="42" fill="#6b7280" font-size="10">devops</text>
    <circle cx="220" cy="28" r="4" fill="#6b7280"/>
    <text x="200" y="32" fill="#6b7280" font-size="9" text-anchor="end">offline</text>
    <text x="12" y="66" fill="#9ca3af" font-size="10">Docker、CI/CD、部署、监控</text>
    <text x="12" y="82" fill="#22c55e" font-size="10" font-weight="600">3 <tspan fill="#6b7280" font-weight="400">done</tspan></text>
    <rect x="12" y="98" width="226" height="28" rx="6" fill="#22c55e18"/>
    <text x="125" y="116" fill="#22c55e" font-size="10" text-anchor="middle" font-weight="500">Start Agent</text>
  </g>

  <!-- ── Content Group ── -->
  <text x="232" y="462" fill="#6b7280" font-size="10" font-weight="700" letter-spacing="0.8">CONTENT</text>
  <line x1="290" y1="458" x2="1020" y2="458" stroke="#2a2b35" stroke-width="0.5"/>

  <!-- Card 7: 公众号写手 -->
  <g transform="translate(232,472)">
    <rect width="250" height="130" rx="12" fill="#1a1b23" stroke="#2a2b35" stroke-width="1"/>
    <rect x="12" y="12" width="36" height="36" rx="8" fill="#0f1117"/>
    <text x="30" y="37" fill="#fff" font-size="18" text-anchor="middle">✍️</text>
    <text x="58" y="28" fill="#fff" font-size="13" font-weight="600">公众号写手</text>
    <text x="58" y="42" fill="#6b7280" font-size="10">content-writer</text>
    <circle cx="220" cy="28" r="4" fill="#6b7280"/>
    <text x="12" y="66" fill="#9ca3af" font-size="10">微信公众号文章创作</text>
    <rect x="12" y="80" width="108" height="28" rx="6" fill="#6366f118"/>
    <text x="66" y="98" fill="#818cf8" font-size="10" text-anchor="middle" font-weight="500">💬 Chat</text>
    <rect x="128" y="80" width="108" height="28" rx="6" fill="#22232d"/>
    <text x="182" y="98" fill="#9ca3af" font-size="10" text-anchor="middle" font-weight="500">📋 History</text>
  </g>

  <!-- Card 8: 小红书写手 -->
  <g transform="translate(494,472)">
    <rect width="250" height="130" rx="12" fill="#1a1b23" stroke="#2a2b35" stroke-width="1"/>
    <rect x="12" y="12" width="36" height="36" rx="8" fill="#0f1117"/>
    <text x="30" y="37" fill="#fff" font-size="18" text-anchor="middle">📕</text>
    <text x="58" y="28" fill="#fff" font-size="13" font-weight="600">小红书写手</text>
    <text x="58" y="42" fill="#6b7280" font-size="10">content-writer</text>
    <circle cx="220" cy="28" r="4" fill="#6b7280"/>
    <text x="12" y="66" fill="#9ca3af" font-size="10">小红书图文笔记创作</text>
    <rect x="12" y="80" width="108" height="28" rx="6" fill="#6366f118"/>
    <text x="66" y="98" fill="#818cf8" font-size="10" text-anchor="middle" font-weight="500">💬 Chat</text>
    <rect x="128" y="80" width="108" height="28" rx="6" fill="#22232d"/>
    <text x="182" y="98" fill="#9ca3af" font-size="10" text-anchor="middle" font-weight="500">📋 History</text>
  </g>

  <!-- ============================================ -->
  <!-- RIGHT PANEL: Agent Chat (w=400)              -->
  <!-- ============================================ -->
  <line x1="1040" y1="0" x2="1040" y2="844" stroke="#2a2b35" stroke-width="1"/>
  <rect x="1040" y="0" width="400" height="900" fill="#1a1b23"/>

  <!-- Chat header -->
  <rect x="1040" y="0" width="400" height="50" fill="#1a1b23"/>
  <text x="1064" y="30" fill="#fff" font-size="16">🧠</text>
  <text x="1090" y="26" fill="#fff" font-size="13" font-weight="600">Master Agent</text>
  <text x="1090" y="40" fill="#6b7280" font-size="10">orchestrator</text>
  <!-- Tabs -->
  <rect x="1320" y="10" width="50" height="26" rx="6" fill="#6366f118"/>
  <text x="1345" y="28" fill="#818cf8" font-size="10" text-anchor="middle" font-weight="500">Chat</text>
  <text x="1400" y="28" fill="#6b7280" font-size="10" text-anchor="middle">History</text>
  <line x1="1040" y1="50" x2="1440" y2="50" stroke="#2a2b35" stroke-width="1"/>

  <!-- Chat messages -->
  <!-- User message 1 -->
  <g transform="translate(1052,70)">
    <!-- user avatar right-aligned -->
    <rect x="330" y="0" width="46" height="36" rx="8" fill="#6366f118"/>
    <text x="345" y="14" fill="#818cf8" font-size="10" font-weight="500">You</text>
    <text x="345" y="28" fill="#fff" font-size="10">👤</text>
    <!-- message bubble -->
    <rect x="100" y="0" width="224" height="36" rx="10" fill="#6366f118"/>
    <text x="112" y="22" fill="#e5e7eb" font-size="11">帮我构建一个天气应用</text>
  </g>

  <!-- Agent message 1 -->
  <g transform="translate(1052,120)">
    <rect x="0" y="0" width="30" height="30" rx="8" fill="#22232d"/>
    <text x="15" y="22" fill="#fff" font-size="14" text-anchor="middle">🧠</text>
    <rect x="38" y="0" width="330" height="120" rx="10" fill="#22232d"/>
    <text x="50" y="18" fill="#e5e7eb" font-size="11">我已分析完毕，建议拆分为3个子任务：</text>
    <text x="50" y="38" fill="#22c55e" font-size="10">1. UI 组件开发 → 🎨 UI Agent</text>
    <text x="50" y="56" fill="#3b82f6" font-size="10">2. API 接口 → ⌨️ Dev Agent</text>
    <text x="50" y="74" fill="#f59e0b" font-size="10">3. 测试覆盖 → 🔍 QA Agent</text>

    <!-- Accept button -->
    <rect x="50" y="90" width="130" height="22" rx="6" fill="#22c55e20" stroke="#22c55e40" stroke-width="0.5"/>
    <text x="115" y="105" fill="#22c55e" font-size="9" text-anchor="middle" font-weight="500">Accept &amp; Dispatch</text>
    <rect x="188" y="90" width="56" height="22" rx="6" fill="#374151"/>
    <text x="216" y="105" fill="#9ca3af" font-size="9" text-anchor="middle">Edit</text>
  </g>

  <!-- Progress indicators (Claude Code style) -->
  <g transform="translate(1052,256)">
    <rect x="0" y="0" width="30" height="30" rx="8" fill="#22232d"/>
    <text x="15" y="22" fill="#fff" font-size="14" text-anchor="middle">🧠</text>
    <rect x="38" y="0" width="330" height="70" rx="10" fill="#22232d"/>
    <!-- progress tree -->
    <text x="50" y="18" fill="#6b7280" font-size="10">├─ 📖 Reading requirements (3 files)</text>
    <text x="50" y="34" fill="#6b7280" font-size="10">├─ 🔍 Searching codebase (5 matches)</text>
    <text x="50" y="50" fill="#818cf8" font-size="10">└─ 💭 Generating plan...</text>
    <!-- pulsing dot -->
    <circle cx="362" cy="47" r="3" fill="#6366f1">
      <animate attributeName="opacity" values="1;0.2;1" dur="1.2s" repeatCount="indefinite"/>
    </circle>
  </g>

  <!-- User message 2 -->
  <g transform="translate(1052,342)">
    <rect x="140" y="0" width="236" height="36" rx="10" fill="#6366f118"/>
    <text x="152" y="22" fill="#e5e7eb" font-size="11">好的，先做UI部分</text>
  </g>

  <!-- Agent streaming response -->
  <g transform="translate(1052,392)">
    <rect x="0" y="0" width="30" height="30" rx="8" fill="#22232d"/>
    <text x="15" y="22" fill="#fff" font-size="14" text-anchor="middle">🧠</text>
    <rect x="38" y="0" width="330" height="32" rx="10" fill="#22232d"/>
    <circle cx="54" cy="16" r="3" fill="#6366f1">
      <animate attributeName="opacity" values="1;0.2;1" dur="1s" repeatCount="indefinite"/>
    </circle>
    <text x="64" y="20" fill="#6b7280" font-size="11">Dispatching to UI Agent...</text>
  </g>

  <!-- Chat input -->
  <g transform="translate(1040,780)">
    <line x1="0" y1="0" x2="400" y2="0" stroke="#2a2b35" stroke-width="1"/>
    <rect x="12" y="12" width="332" height="38" rx="10" fill="#0f1117" stroke="#2a2b35" stroke-width="1"/>
    <text x="24" y="36" fill="#4b5563" font-size="11">Message Master Agent...</text>
    <rect x="352" y="12" width="38" height="38" rx="10" fill="#6366f1"/>
    <text x="371" y="36" fill="#fff" font-size="14" text-anchor="middle">↑</text>
  </g>

  <!-- ============================================ -->
  <!-- BOTTOM COMMAND BAR                            -->
  <!-- ============================================ -->
  <line x1="0" y1="844" x2="1440" y2="844" stroke="#2a2b35" stroke-width="1"/>
  <rect x="0" y="844" width="1440" height="56" fill="#1a1b23"/>

  <!-- Mode toggle -->
  <rect x="16" y="856" width="80" height="30" rx="8" fill="#22232d"/>
  <text x="56" y="876" fill="#9ca3af" font-size="10" text-anchor="middle" font-weight="500">💬 Direct</text>

  <!-- Input -->
  <rect x="104" y="856" width="1240" height="30" rx="8" fill="#0f1117" stroke="#2a2b35" stroke-width="1"/>
  <text x="120" y="876" fill="#4b5563" font-size="11">Type @agent to target, or describe a task... (e.g. @dev implement login page)</text>

  <!-- Send button -->
  <rect x="1356" y="856" width="68" height="30" rx="8" fill="#6366f1"/>
  <text x="1390" y="876" fill="#fff" font-size="11" text-anchor="middle" font-weight="500">Send</text>

  <!-- Legend: status dots -->
  <g transform="translate(1060,640)">
    <text x="0" y="0" fill="#4b5563" font-size="9">STATUS</text>
    <circle cx="6" cy="14" r="3" fill="#22c55e"/>
    <text x="14" y="18" fill="#6b7280" font-size="9">Idle</text>
    <circle cx="56" cy="14" r="3" fill="#3b82f6"/>
    <text x="64" y="18" fill="#6b7280" font-size="9">Working</text>
    <circle cx="120" cy="14" r="3" fill="#6b7280"/>
    <text x="128" y="18" fill="#6b7280" font-size="9">Offline</text>
  </g>
</svg>
