<svg xmlns="http://www.w3.org/2000/svg" width="1200" height="900" viewBox="0 0 1200 900">
  <defs>
    <filter id="shadow" x="-2%" y="-2%" width="104%" height="104%">
      <feDropShadow dx="0" dy="2" stdDeviation="4" flood-color="#000" flood-opacity="0.3"/>
    </filter>
    <linearGradient id="bar-grad" x1="0" y1="0" x2="0" y2="1">
      <stop offset="0%" stop-color="#818cf8"/>
      <stop offset="100%" stop-color="#6366f1"/>
    </linearGradient>
  </defs>
  <rect width="1200" height="900" fill="#0f1117"/>

  <!-- Header -->
  <text x="40" y="44" fill="#fff" font-family="system-ui,sans-serif" font-size="22" font-weight="700">💰 Cost Analytics</text>
  <text x="40" y="66" fill="#6b7280" font-family="system-ui,sans-serif" font-size="13">Agent 使用成本与预算分析</text>

  <!-- Top Stats Row -->
  <rect x="40" y="86" width="260" height="80" rx="12" fill="#1a1b23" filter="url(#shadow)" stroke="#374151" stroke-width="1"/>
  <text x="60" y="114" fill="#6b7280" font-family="system-ui,sans-serif" font-size="12">Today</text>
  <text x="60" y="144" fill="#fff" font-family="system-ui,sans-serif" font-size="28" font-weight="700">$4.32</text>
  <text x="160" y="144" fill="#22c55e" font-family="system-ui,sans-serif" font-size="12">↓ 12%</text>

  <rect x="320" y="86" width="260" height="80" rx="12" fill="#1a1b23" filter="url(#shadow)" stroke="#374151" stroke-width="1"/>
  <text x="340" y="114" fill="#6b7280" font-family="system-ui,sans-serif" font-size="12">This Week</text>
  <text x="340" y="144" fill="#fff" font-family="system-ui,sans-serif" font-size="28" font-weight="700">$28.70</text>
  <text x="454" y="144" fill="#22c55e" font-family="system-ui,sans-serif" font-size="12">↓ 5%</text>

  <rect x="600" y="86" width="260" height="80" rx="12" fill="#1a1b23" filter="url(#shadow)" stroke="#374151" stroke-width="1"/>
  <text x="620" y="114" fill="#6b7280" font-family="system-ui,sans-serif" font-size="12">This Month</text>
  <text x="620" y="144" fill="#fff" font-family="system-ui,sans-serif" font-size="28" font-weight="700">$142.50</text>
  <text x="766" y="144" fill="#f59e0b" font-family="system-ui,sans-serif" font-size="12">↑ 8%</text>

  <rect x="880" y="86" width="280" height="80" rx="12" fill="#1a1b23" filter="url(#shadow)" stroke="#374151" stroke-width="1"/>
  <text x="900" y="114" fill="#6b7280" font-family="system-ui,sans-serif" font-size="12">Budget Remaining</text>
  <text x="900" y="144" fill="#f59e0b" font-family="system-ui,sans-serif" font-size="28" font-weight="700">$57.50</text>
  <text x="1026" y="144" fill="#6b7280" font-family="system-ui,sans-serif" font-size="14">/ $200</text>

  <!-- Main Chart -->
  <rect x="40" y="186" width="1120" height="320" rx="12" fill="#1a1b23" filter="url(#shadow)" stroke="#374151" stroke-width="1"/>
  <text x="64" y="218" fill="#fff" font-family="system-ui,sans-serif" font-size="15" font-weight="600">📊 每日成本 (Last 7 Days)</text>
  
  <!-- Y-axis labels -->
  <text x="74" y="252" fill="#6b7280" font-family="system-ui,sans-serif" font-size="11">$8</text>
  <line x1="96" y1="248" x2="1120" y2="248" stroke="#374151" stroke-width="0.5" stroke-dasharray="4"/>
  <text x="74" y="297" fill="#6b7280" font-family="system-ui,sans-serif" font-size="11">$6</text>
  <line x1="96" y1="293" x2="1120" y2="293" stroke="#374151" stroke-width="0.5" stroke-dasharray="4"/>
  <text x="74" y="342" fill="#6b7280" font-family="system-ui,sans-serif" font-size="11">$4</text>
  <line x1="96" y1="338" x2="1120" y2="338" stroke="#374151" stroke-width="0.5" stroke-dasharray="4"/>
  <text x="74" y="387" fill="#6b7280" font-family="system-ui,sans-serif" font-size="11">$2</text>
  <line x1="96" y1="383" x2="1120" y2="383" stroke="#374151" stroke-width="0.5" stroke-dasharray="4"/>
  <text x="74" y="432" fill="#6b7280" font-family="system-ui,sans-serif" font-size="11">$0</text>
  <line x1="96" y1="428" x2="1120" y2="428" stroke="#374151" stroke-width="0.5"/>

  <!-- Bars: Mon-Sun -->
  <!-- Mon $3.20 => 72px height -->
  <rect x="160" y="356" width="80" height="72" rx="4" fill="url(#bar-grad)" opacity="0.9"/>
  <text x="186" y="448" fill="#9ca3af" font-family="system-ui,sans-serif" font-size="12">Mon</text>
  <text x="184" y="350" fill="#9ca3af" font-family="system-ui,sans-serif" font-size="11">$3.20</text>

  <!-- Tue $5.80 => 131px -->
  <rect x="290" y="297" width="80" height="131" rx="4" fill="url(#bar-grad)" opacity="0.9"/>
  <text x="320" y="448" fill="#9ca3af" font-family="system-ui,sans-serif" font-size="12">Tue</text>
  <text x="314" y="291" fill="#9ca3af" font-family="system-ui,sans-serif" font-size="11">$5.80</text>

  <!-- Wed $4.50 => 101px -->
  <rect x="420" y="327" width="80" height="101" rx="4" fill="url(#bar-grad)" opacity="0.9"/>
  <text x="447" y="448" fill="#9ca3af" font-family="system-ui,sans-serif" font-size="12">Wed</text>
  <text x="444" y="321" fill="#9ca3af" font-family="system-ui,sans-serif" font-size="11">$4.50</text>

  <!-- Thu $6.20 => 140px -->
  <rect x="550" y="288" width="80" height="140" rx="4" fill="url(#bar-grad)" opacity="0.9"/>
  <text x="578" y="448" fill="#9ca3af" font-family="system-ui,sans-serif" font-size="12">Thu</text>
  <text x="574" y="282" fill="#9ca3af" font-family="system-ui,sans-serif" font-size="11">$6.20</text>

  <!-- Fri $3.80 => 86px -->
  <rect x="680" y="342" width="80" height="86" rx="4" fill="url(#bar-grad)" opacity="0.9"/>
  <text x="712" y="448" fill="#9ca3af" font-family="system-ui,sans-serif" font-size="12">Fri</text>
  <text x="706" y="336" fill="#9ca3af" font-family="system-ui,sans-serif" font-size="11">$3.80</text>

  <!-- Sat $1.20 => 27px -->
  <rect x="810" y="401" width="80" height="27" rx="4" fill="url(#bar-grad)" opacity="0.9"/>
  <text x="838" y="448" fill="#9ca3af" font-family="system-ui,sans-serif" font-size="12">Sat</text>
  <text x="836" y="395" fill="#9ca3af" font-family="system-ui,sans-serif" font-size="11">$1.20</text>

  <!-- Sun $4.00 => 90px -->
  <rect x="940" y="338" width="80" height="90" rx="4" fill="url(#bar-grad)" opacity="0.9"/>
  <text x="968" y="448" fill="#9ca3af" font-family="system-ui,sans-serif" font-size="12">Sun</text>
  <text x="964" y="332" fill="#9ca3af" font-family="system-ui,sans-serif" font-size="11">$4.00</text>

  <!-- Bottom Left: Agent Cost Ranking -->
  <rect x="40" y="526" width="540" height="280" rx="12" fill="#1a1b23" filter="url(#shadow)" stroke="#374151" stroke-width="1"/>
  <text x="64" y="558" fill="#fff" font-family="system-ui,sans-serif" font-size="15" font-weight="600">🏆 Agent 成本排行</text>

  <!-- Horizontal bars -->
  <text x="64" y="590" fill="#9ca3af" font-family="system-ui,sans-serif" font-size="13">Dev ⌨️</text>
  <rect x="150" y="576" width="340" height="20" rx="4" fill="#6366f1" opacity="0.8"/>
  <text x="500" y="590" fill="#fff" font-family="system-ui,sans-serif" font-size="12">$52.00</text>

  <text x="64" y="622" fill="#9ca3af" font-family="system-ui,sans-serif" font-size="13">PM 🎯</text>
  <rect x="150" y="608" width="183" height="20" rx="4" fill="#6366f1" opacity="0.7"/>
  <text x="343" y="622" fill="#fff" font-family="system-ui,sans-serif" font-size="12">$28.00</text>

  <text x="64" y="654" fill="#9ca3af" font-family="system-ui,sans-serif" font-size="13">QA 🔍</text>
  <rect x="150" y="640" width="118" height="20" rx="4" fill="#6366f1" opacity="0.6"/>
  <text x="278" y="654" fill="#fff" font-family="system-ui,sans-serif" font-size="12">$18.00</text>

  <text x="64" y="686" fill="#9ca3af" font-family="system-ui,sans-serif" font-size="13">Review 📝</text>
  <rect x="150" y="672" width="98" height="20" rx="4" fill="#6366f1" opacity="0.5"/>
  <text x="258" y="686" fill="#fff" font-family="system-ui,sans-serif" font-size="12">$15.00</text>

  <text x="64" y="718" fill="#9ca3af" font-family="system-ui,sans-serif" font-size="13">Ops 🚀</text>
  <rect x="150" y="704" width="78" height="20" rx="4" fill="#6366f1" opacity="0.4"/>
  <text x="238" y="718" fill="#fff" font-family="system-ui,sans-serif" font-size="12">$12.00</text>

  <text x="64" y="750" fill="#9ca3af" font-family="system-ui,sans-serif" font-size="13">Others</text>
  <rect x="150" y="736" width="114" height="20" rx="4" fill="#374151" opacity="0.6"/>
  <text x="274" y="750" fill="#9ca3af" font-family="system-ui,sans-serif" font-size="12">$17.50</text>

  <!-- Bottom Right: Pipeline Cost -->
  <rect x="600" y="526" width="560" height="280" rx="12" fill="#1a1b23" filter="url(#shadow)" stroke="#374151" stroke-width="1"/>
  <text x="624" y="558" fill="#fff" font-family="system-ui,sans-serif" font-size="15" font-weight="600">🔗 Pipeline 成本</text>

  <!-- Pipeline list -->
  <rect x="624" y="574" width="512" height="52" rx="8" fill="#0f1117" stroke="#374151" stroke-width="0.5"/>
  <text x="644" y="596" fill="#fff" font-family="system-ui,sans-serif" font-size="14">Todo App</text>
  <text x="644" y="614" fill="#6b7280" font-family="system-ui,sans-serif" font-size="11">Pipeline #17 · 5 stages · Completed</text>
  <text x="1080" y="598" fill="#fff" font-family="system-ui,sans-serif" font-size="16" font-weight="600" text-anchor="end">$8.20</text>

  <rect x="624" y="634" width="512" height="52" rx="8" fill="#0f1117" stroke="#374151" stroke-width="0.5"/>
  <text x="644" y="656" fill="#fff" font-family="system-ui,sans-serif" font-size="14">Weather App</text>
  <text x="644" y="674" fill="#6b7280" font-family="system-ui,sans-serif" font-size="11">Pipeline #16 · 4 stages · Completed</text>
  <text x="1080" y="658" fill="#fff" font-family="system-ui,sans-serif" font-size="16" font-weight="600" text-anchor="end">$6.50</text>

  <rect x="624" y="694" width="512" height="52" rx="8" fill="#0f1117" stroke="#374151" stroke-width="0.5"/>
  <text x="644" y="716" fill="#fff" font-family="system-ui,sans-serif" font-size="14">Auth Refactor</text>
  <text x="644" y="734" fill="#6b7280" font-family="system-ui,sans-serif" font-size="11">Pipeline #15 · 3 stages · In Progress</text>
  <text x="1080" y="718" fill="#fff" font-family="system-ui,sans-serif" font-size="16" font-weight="600" text-anchor="end">$3.80</text>

  <rect x="624" y="754" width="512" height="40" rx="8" fill="transparent"/>
  <text x="644" y="780" fill="#6b7280" font-family="system-ui,sans-serif" font-size="13">查看全部 →</text>

  <!-- Budget Alert Banner -->
  <rect x="40" y="830" width="1120" height="50" rx="12" fill="#f59e0b" opacity="0.1" stroke="#f59e0b" stroke-width="1" stroke-opacity="0.3"/>
  <text x="64" y="860" fill="#f59e0b" font-family="system-ui,sans-serif" font-size="14" font-weight="500">⚠️ 月预算已使用 71.3%，预计本月底将超支</text>
  <rect x="1000" y="842" width="120" height="30" rx="6" fill="#f59e0b" opacity="0.2"/>
  <text x="1024" y="862" fill="#f59e0b" font-family="system-ui,sans-serif" font-size="12" font-weight="600">调整预算 →</text>
</svg>