<svg xmlns="http://www.w3.org/2000/svg" width="1200" height="900" font-family="-apple-system,BlinkMacSystemFont,'Segoe UI',Roboto,sans-serif">
  <defs>
    <filter id="shadow" x="-2%" y="-2%" width="104%" height="104%">
      <feDropShadow dx="0" dy="2" stdDeviation="4" flood-color="#000" flood-opacity="0.3"/>
    </filter>
    <linearGradient id="accent" x1="0" y1="0" x2="1" y2="1">
      <stop offset="0%" stop-color="#6366f1"/>
      <stop offset="100%" stop-color="#818cf8"/>
    </linearGradient>
    <linearGradient id="greenGrad" x1="0" y1="0" x2="1" y2="0">
      <stop offset="0%" stop-color="#22c55e"/>
      <stop offset="100%" stop-color="#4ade80"/>
    </linearGradient>
  </defs>

  <rect width="1200" height="900" fill="#0f1117"/>

  <!-- Header -->
  <text x="32" y="40" fill="#fff" font-size="20" font-weight="700">🔗 Pipeline 详情</text>
  <text x="210" y="40" fill="#6b7280" font-size="13">Pipeline Detail</text>

  <!-- Pipeline Title Bar -->
  <g transform="translate(24,58)">
    <rect width="1152" height="60" rx="12" fill="#1a1b23" filter="url(#shadow)"/>
    <text x="20" y="28" fill="#fff" font-size="16" font-weight="700">Full Product: Todo App</text>
    <rect x="240" y="12" width="72" height="26" rx="6" fill="#22c55e20"/>
    <text x="276" y="30" fill="#22c55e" font-size="11" text-anchor="middle" font-weight="500">Running</text>
    <text x="340" y="30" fill="#6b7280" font-size="11">创建于 15 分钟前 · 预计剩余 12 min</text>
    <text x="20" y="48" fill="#6b7280" font-size="11">ID: pipe_a3f8c · 模式: Sequential · 总阶段: 5 · 当前: Code</text>
    <!-- Actions -->
    <rect x="980" y="14" width="70" height="30" rx="8" fill="#f59e0b"/>
    <text x="1015" y="34" fill="#fff" font-size="11" text-anchor="middle" font-weight="500">⏸ Pause</text>
    <rect x="1060" y="14" width="70" height="30" rx="8" fill="#ef4444"/>
    <text x="1095" y="34" fill="#fff" font-size="11" text-anchor="middle" font-weight="500">✕ Cancel</text>
  </g>

  <!-- Stage Flow (horizontal) -->
  <g transform="translate(24,136)">
    <rect width="1152" height="100" rx="12" fill="#1a1b23" filter="url(#shadow)"/>
    <text x="20" y="24" fill="#9ca3af" font-size="11">阶段流程</text>

    <!-- Spec -->
    <g transform="translate(60,40)">
      <rect width="140" height="44" rx="10" fill="#22c55e20" stroke="#22c55e" stroke-width="1.5"/>
      <text x="70" y="18" fill="#22c55e" font-size="13" text-anchor="middle" font-weight="600">✅ Spec</text>
      <text x="70" y="34" fill="#6b7280" font-size="10" text-anchor="middle">🎯 PM · 2m 30s</text>
    </g>
    <line x1="200" y1="62" x2="240" y2="62" stroke="#22c55e" stroke-width="2"/>
    <polygon points="238,57 248,62 238,67" fill="#22c55e"/>

    <!-- Design -->
    <g transform="translate(250,40)">
      <rect width="140" height="44" rx="10" fill="#22c55e20" stroke="#22c55e" stroke-width="1.5"/>
      <text x="70" y="18" fill="#22c55e" font-size="13" text-anchor="middle" font-weight="600">✅ Design</text>
      <text x="70" y="34" fill="#6b7280" font-size="10" text-anchor="middle">🎨 UI · 4m 10s</text>
    </g>
    <line x1="390" y1="62" x2="430" y2="62" stroke="#22c55e" stroke-width="2"/>
    <polygon points="428,57 438,62 428,67" fill="#22c55e"/>

    <!-- Code (active) -->
    <g transform="translate(440,40)">
      <rect width="140" height="44" rx="10" fill="#6366f120" stroke="#6366f1" stroke-width="2">
        <animate attributeName="stroke-opacity" values="1;0.4;1" dur="2s" repeatCount="indefinite"/>
      </rect>
      <text x="70" y="18" fill="#818cf8" font-size="13" text-anchor="middle" font-weight="600">🔄 Code</text>
      <text x="70" y="34" fill="#6b7280" font-size="10" text-anchor="middle">⌨️ Dev · 8m 12s</text>
    </g>
    <line x1="580" y1="62" x2="620" y2="62" stroke="#374151" stroke-width="2" stroke-dasharray="4,4"/>

    <!-- Test -->
    <g transform="translate(630,40)">
      <rect width="140" height="44" rx="10" fill="#0f1117" stroke="#374151" stroke-width="1"/>
      <text x="70" y="18" fill="#6b7280" font-size="13" text-anchor="middle" font-weight="600">⏳ Test</text>
      <text x="70" y="34" fill="#4b5563" font-size="10" text-anchor="middle">🔍 QA · 等待中</text>
    </g>
    <line x1="770" y1="62" x2="810" y2="62" stroke="#374151" stroke-width="2" stroke-dasharray="4,4"/>

    <!-- Deploy -->
    <g transform="translate(820,40)">
      <rect width="140" height="44" rx="10" fill="#0f1117" stroke="#374151" stroke-width="1"/>
      <text x="70" y="18" fill="#6b7280" font-size="13" text-anchor="middle" font-weight="600">⏳ Deploy</text>
      <text x="70" y="34" fill="#4b5563" font-size="10" text-anchor="middle">🚀 Ops · 等待中</text>
    </g>
  </g>

  <!-- Main Content: Left Sidebar + Right Panel -->
  <!-- Left Sidebar: Stage List -->
  <g transform="translate(24,252)">
    <rect width="280" height="620" rx="12" fill="#1a1b23" filter="url(#shadow)"/>
    <text x="16" y="28" fill="#fff" font-size="13" font-weight="600">阶段列表</text>

    <!-- Stage 1: Spec ✅ -->
    <g transform="translate(12,42)">
      <rect width="256" height="100" rx="8" fill="#0f1117" stroke="#22c55e" stroke-width="1"/>
      <text x="12" y="22" fill="#22c55e" font-size="12" font-weight="600">✅ 1. Spec 需求规格</text>
      <text x="12" y="40" fill="#6b7280" font-size="10">🎯 PM Agent · 耗时 2m 30s</text>
      <text x="12" y="58" fill="#6b7280" font-size="10">产出: spec.md (1.2k words)</text>
      <text x="12" y="76" fill="#6b7280" font-size="10">Token: 1,234 · Cost: $0.08</text>
      <text x="12" y="92" fill="#22c55e" font-size="10">Gate: Auto-approved</text>
    </g>

    <!-- Stage 2: Design ✅ -->
    <g transform="translate(12,152)">
      <rect width="256" height="100" rx="8" fill="#0f1117" stroke="#22c55e" stroke-width="1"/>
      <text x="12" y="22" fill="#22c55e" font-size="12" font-weight="600">✅ 2. Design 设计</text>
      <text x="12" y="40" fill="#6b7280" font-size="10">🎨 UI Agent · 耗时 4m 10s</text>
      <text x="12" y="58" fill="#6b7280" font-size="10">产出: 3 页面设计, 组件库</text>
      <text x="12" y="76" fill="#6b7280" font-size="10">Token: 3,456 · Cost: $0.22</text>
      <text x="12" y="92" fill="#22c55e" font-size="10">Gate: Manual approved ✓</text>
    </g>

    <!-- Stage 3: Code 🔄 (active) -->
    <g transform="translate(12,262)">
      <rect width="256" height="100" rx="8" fill="#6366f110" stroke="#6366f1" stroke-width="1.5"/>
      <text x="12" y="22" fill="#818cf8" font-size="12" font-weight="600">🔄 3. Code 编码</text>
      <text x="12" y="40" fill="#6b7280" font-size="10">⌨️ Dev Agent · 进行中 8m 12s</text>
      <rect x="12" y="50" width="232" height="5" rx="2" fill="#374151"/>
      <rect x="12" y="50" width="150" height="5" rx="2" fill="#6366f1"/>
      <text x="12" y="72" fill="#6b7280" font-size="10">Token: 14,302 · Cost: $0.42</text>
      <text x="12" y="88" fill="#6b7280" font-size="10">Gate: 需人工审批</text>
    </g>

    <!-- Stage 4: Test ⏳ -->
    <g transform="translate(12,372)">
      <rect width="256" height="80" rx="8" fill="#0f1117" stroke="#374151" stroke-width="1" opacity="0.6"/>
      <text x="12" y="22" fill="#6b7280" font-size="12" font-weight="600">⏳ 4. Test 测试</text>
      <text x="12" y="40" fill="#4b5563" font-size="10">🔍 QA Agent · 等待中</text>
      <text x="12" y="58" fill="#4b5563" font-size="10">Gate: Auto</text>
    </g>

    <!-- Stage 5: Deploy ⏳ -->
    <g transform="translate(12,462)">
      <rect width="256" height="80" rx="8" fill="#0f1117" stroke="#374151" stroke-width="1" opacity="0.6"/>
      <text x="12" y="22" fill="#6b7280" font-size="12" font-weight="600">⏳ 5. Deploy 部署</text>
      <text x="12" y="40" fill="#4b5563" font-size="10">🚀 Ops Agent · 等待中</text>
      <text x="12" y="58" fill="#4b5563" font-size="10">Gate: 需人工审批</text>
    </g>

    <!-- Summary -->
    <g transform="translate(12,555)">
      <text x="0" y="14" fill="#9ca3af" font-size="11">总计: 5 阶段 · 已完成 2 · 进行中 1</text>
      <text x="0" y="32" fill="#9ca3af" font-size="11">累计 Token: 19,000 · 总费用: $0.72</text>
      <text x="0" y="50" fill="#9ca3af" font-size="11">总耗时: 14m 52s</text>
    </g>
  </g>

  <!-- Right Panel: Current Stage Detail -->
  <g transform="translate(318,252)">
    <rect width="858" height="620" rx="12" fill="#1a1b23" filter="url(#shadow)"/>

    <!-- Panel Header -->
    <text x="20" y="28" fill="#fff" font-size="15" font-weight="700">🔄 Stage 3: Code 编码</text>
    <rect x="220" y="10" width="70" height="24" rx="6" fill="#6366f120"/>
    <text x="255" y="26" fill="#818cf8" font-size="11" text-anchor="middle" font-weight="500">Running</text>

    <!-- Agent & Meta -->
    <g transform="translate(20,44)">
      <text x="0" y="14" fill="#9ca3af" font-size="12">Agent: ⌨️ Dev Agent</text>
      <text x="200" y="14" fill="#9ca3af" font-size="12">⏱ 8m 12s</text>
      <text x="340" y="14" fill="#9ca3af" font-size="12">Token: 14,302</text>
      <text x="500" y="14" fill="#9ca3af" font-size="12">Cost: $0.42</text>
    </g>

    <!-- Progress Bar -->
    <g transform="translate(20,70)">
      <text x="0" y="14" fill="#9ca3af" font-size="11">进度 65%</text>
      <rect x="0" y="22" width="818" height="8" rx="4" fill="#374151"/>
      <rect x="0" y="22" width="532" height="8" rx="4" fill="url(#accent)"/>
    </g>

    <!-- Live Log -->
    <g transform="translate(20,106)">
      <text x="0" y="14" fill="#fff" font-size="12" font-weight="600">📟 Live Output</text>
      <rect x="0" y="22" width="818" height="380" rx="8" fill="#0f1117" stroke="#374151" stroke-width="1"/>
      <g font-family="'SF Mono','Fira Code','Cascadia Code',monospace" font-size="11.5" fill="#d1d5db">
        <text x="12" y="44" fill="#6366f1">$ Creating project structure...</text>
        <text x="12" y="64" fill="#22c55e">✓ src/</text>
        <text x="12" y="82" fill="#22c55e">✓ src/components/</text>
        <text x="12" y="100" fill="#22c55e">✓ src/hooks/</text>
        <text x="12" y="118" fill="#22c55e">✓ src/utils/</text>
        <text x="12" y="140" fill="#6366f1">$ Writing src/App.tsx...</text>
        <text x="12" y="158" fill="#d1d5db">  import React from 'react';</text>
        <text x="12" y="176" fill="#d1d5db">  import { TodoList } from './components/TodoList';</text>
        <text x="12" y="194" fill="#d1d5db">  import { useTodos } from './hooks/useTodos';</text>
        <text x="12" y="216" fill="#6366f1">$ Writing src/components/TodoList.tsx...</text>
        <text x="12" y="234" fill="#d1d5db">  export const TodoList: React.FC = () =&gt; {'{'}</text>
        <text x="12" y="252" fill="#d1d5db">    const [todos, setTodos] = useTodos();</text>
        <text x="12" y="270" fill="#d1d5db">    return (</text>
        <text x="12" y="288" fill="#d1d5db">      &lt;div className="todo-container"&gt;</text>
        <text x="12" y="310" fill="#6366f1">$ Writing src/components/TodoItem.tsx...</text>
        <text x="12" y="328" fill="#22c55e">✓ TodoItem component complete</text>
        <text x="12" y="350" fill="#6366f1">$ Writing src/hooks/useTodos.ts...</text>
        <text x="12" y="368" fill="#f59e0b">⟳ Processing... (14,302 tokens used)</text>
        <!-- Blinking cursor -->
        <rect x="12" y="378" width="8" height="14" fill="#6366f1">
          <animate attributeName="opacity" values="1;0;1" dur="1s" repeatCount="indefinite"/>
        </rect>
      </g>
    </g>

    <!-- Gate Controls -->
    <g transform="translate(20,512)">
      <text x="0" y="14" fill="#fff" font-size="12" font-weight="600">🚪 Gate Control</text>
      <text x="0" y="34" fill="#6b7280" font-size="11">代码阶段完成后需要人工审批才能进入测试阶段</text>
      <rect x="0" y="46" width="100" height="36" rx="8" fill="#22c55e"/>
      <text x="50" y="70" fill="#fff" font-size="12" text-anchor="middle" font-weight="600">✓ Approve</text>
      <rect x="112" y="46" width="80" height="36" rx="8" fill="#374151"/>
      <text x="152" y="70" fill="#d1d5db" font-size="12" text-anchor="middle">Skip</text>
      <rect x="204" y="46" width="80" height="36" rx="8" fill="#f59e0b"/>
      <text x="244" y="70" fill="#fff" font-size="12" text-anchor="middle">⏸ Pause</text>
      <rect x="296" y="46" width="80" height="36" rx="8" fill="#ef4444"/>
      <text x="336" y="70" fill="#fff" font-size="12" text-anchor="middle">✕ Abort</text>

      <text x="500" y="56" fill="#6b7280" font-size="11">自动审批:</text>
      <rect x="560" y="42" width="40" height="22" rx="11" fill="#374151"/>
      <circle cx="573" cy="53" r="8" fill="#6b7280"/>
      <text x="610" y="58" fill="#6b7280" font-size="11">关闭</text>
    </g>
  </g>

  <!-- Bottom nav -->
  <text x="600" y="888" fill="#374151" font-size="11" text-anchor="middle">Overview · Tasks · Pipelines · Agents · Settings</text>
  <rect x="565" y="878" width="66" height="2" rx="1" fill="#6366f1"/>
</svg>