<svg xmlns="http://www.w3.org/2000/svg" width="1200" height="900" viewBox="0 0 1200 900">
  <defs>
    <filter id="shadow" x="-2%" y="-2%" width="104%" height="104%">
      <feDropShadow dx="0" dy="2" stdDeviation="4" flood-color="#000" flood-opacity="0.3"/>
    </filter>
    <marker id="arrow" markerWidth="10" markerHeight="7" refX="10" refY="3.5" orient="auto">
      <polygon points="0 0, 10 3.5, 0 7" fill="#6366f1"/>
    </marker>
  </defs>
  <rect width="1200" height="900" fill="#0f1117"/>

  <!-- Header -->
  <text x="40" y="40" fill="#fff" font-family="system-ui,sans-serif" font-size="20" font-weight="700">📝 编辑模板: Full Product</text>
  <text x="40" y="62" fill="#6b7280" font-family="system-ui,sans-serif" font-size="13">Pipeline template · 5 stages</text>
  
  <rect x="990" y="18" width="80" height="34" rx="8" fill="transparent" stroke="#374151" stroke-width="1"/>
  <text x="1012" y="40" fill="#9ca3af" font-family="system-ui,sans-serif" font-size="13">Cancel</text>
  <rect x="1082" y="18" width="80" height="34" rx="8" fill="#6366f1"/>
  <text x="1108" y="40" fill="#fff" font-family="system-ui,sans-serif" font-size="13" font-weight="600">Save</text>

  <!-- Flow Diagram Area -->
  <rect x="40" y="80" width="950" height="220" rx="12" fill="#1a1b23" filter="url(#shadow)" stroke="#374151" stroke-width="1"/>
  <text x="64" y="108" fill="#6b7280" font-family="system-ui,sans-serif" font-size="12">Pipeline Flow</text>

  <!-- Stage Nodes -->
  <!-- Spec -->
  <rect x="70" y="130" width="130" height="80" rx="12" fill="#0f1117" stroke="#374151" stroke-width="1"/>
  <text x="135" y="158" fill="#fff" font-family="system-ui,sans-serif" font-size="20" text-anchor="middle">🎯</text>
  <text x="135" y="180" fill="#fff" font-family="system-ui,sans-serif" font-size="13" font-weight="600" text-anchor="middle">Spec</text>
  <text x="135" y="196" fill="#6b7280" font-family="system-ui,sans-serif" font-size="11" text-anchor="middle">PM</text>
  <circle cx="190" cy="136" r="8" fill="#1a1b23" stroke="#374151" stroke-width="1"/>
  <text x="190" y="140" fill="#6b7280" font-family="system-ui,sans-serif" font-size="9" text-anchor="middle">⚙</text>

  <!-- Arrow + Plus -->
  <line x1="200" y1="170" x2="240" y2="170" stroke="#6366f1" stroke-width="2" marker-end="url(#arrow)"/>
  <circle cx="225" cy="170" r="10" fill="#1a1b23" stroke="#6366f1" stroke-width="1"/>
  <text x="225" y="174" fill="#6366f1" font-family="system-ui,sans-serif" font-size="12" text-anchor="middle">+</text>

  <!-- Design -->
  <rect x="250" y="130" width="130" height="80" rx="12" fill="#0f1117" stroke="#374151" stroke-width="1"/>
  <text x="315" y="158" fill="#fff" font-family="system-ui,sans-serif" font-size="20" text-anchor="middle">🎨</text>
  <text x="315" y="180" fill="#fff" font-family="system-ui,sans-serif" font-size="13" font-weight="600" text-anchor="middle">Design</text>
  <text x="315" y="196" fill="#6b7280" font-family="system-ui,sans-serif" font-size="11" text-anchor="middle">UI</text>
  <circle cx="370" cy="136" r="8" fill="#1a1b23" stroke="#374151" stroke-width="1"/>
  <text x="370" y="140" fill="#6b7280" font-family="system-ui,sans-serif" font-size="9" text-anchor="middle">⚙</text>

  <line x1="380" y1="170" x2="420" y2="170" stroke="#6366f1" stroke-width="2" marker-end="url(#arrow)"/>
  <circle cx="405" cy="170" r="10" fill="#1a1b23" stroke="#6366f1" stroke-width="1"/>
  <text x="405" y="174" fill="#6366f1" font-family="system-ui,sans-serif" font-size="12" text-anchor="middle">+</text>

  <!-- Code (selected - highlighted) -->
  <rect x="430" y="130" width="130" height="80" rx="12" fill="#6366f1" opacity="0.15" stroke="#6366f1" stroke-width="2"/>
  <text x="495" y="158" fill="#fff" font-family="system-ui,sans-serif" font-size="20" text-anchor="middle">⌨️</text>
  <text x="495" y="180" fill="#fff" font-family="system-ui,sans-serif" font-size="13" font-weight="600" text-anchor="middle">Code</text>
  <text x="495" y="196" fill="#9ca3af" font-family="system-ui,sans-serif" font-size="11" text-anchor="middle">Dev</text>
  <circle cx="550" cy="136" r="8" fill="#6366f1" stroke="#6366f1" stroke-width="1"/>
  <text x="550" y="140" fill="#fff" font-family="system-ui,sans-serif" font-size="9" text-anchor="middle">⚙</text>

  <line x1="560" y1="170" x2="600" y2="170" stroke="#6366f1" stroke-width="2" marker-end="url(#arrow)"/>
  <circle cx="585" cy="170" r="10" fill="#1a1b23" stroke="#6366f1" stroke-width="1"/>
  <text x="585" y="174" fill="#6366f1" font-family="system-ui,sans-serif" font-size="12" text-anchor="middle">+</text>

  <!-- Test -->
  <rect x="610" y="130" width="130" height="80" rx="12" fill="#0f1117" stroke="#374151" stroke-width="1"/>
  <text x="675" y="158" fill="#fff" font-family="system-ui,sans-serif" font-size="20" text-anchor="middle">🔍</text>
  <text x="675" y="180" fill="#fff" font-family="system-ui,sans-serif" font-size="13" font-weight="600" text-anchor="middle">Test</text>
  <text x="675" y="196" fill="#6b7280" font-family="system-ui,sans-serif" font-size="11" text-anchor="middle">QA</text>
  <circle cx="730" cy="136" r="8" fill="#1a1b23" stroke="#374151" stroke-width="1"/>
  <text x="730" y="140" fill="#6b7280" font-family="system-ui,sans-serif" font-size="9" text-anchor="middle">⚙</text>

  <line x1="740" y1="170" x2="780" y2="170" stroke="#6366f1" stroke-width="2" marker-end="url(#arrow)"/>
  <circle cx="765" cy="170" r="10" fill="#1a1b23" stroke="#6366f1" stroke-width="1"/>
  <text x="765" y="174" fill="#6366f1" font-family="system-ui,sans-serif" font-size="12" text-anchor="middle">+</text>

  <!-- Deploy -->
  <rect x="790" y="130" width="130" height="80" rx="12" fill="#0f1117" stroke="#374151" stroke-width="1"/>
  <text x="855" y="158" fill="#fff" font-family="system-ui,sans-serif" font-size="20" text-anchor="middle">🚀</text>
  <text x="855" y="180" fill="#fff" font-family="system-ui,sans-serif" font-size="13" font-weight="600" text-anchor="middle">Deploy</text>
  <text x="855" y="196" fill="#6b7280" font-family="system-ui,sans-serif" font-size="11" text-anchor="middle">Ops</text>

  <!-- End plus -->
  <circle cx="945" cy="170" r="12" fill="#1a1b23" stroke="#6366f1" stroke-width="1.5" stroke-dasharray="4"/>
  <text x="945" y="175" fill="#6366f1" font-family="system-ui,sans-serif" font-size="16" text-anchor="middle">+</text>

  <!-- Selected Stage Detail Panel -->
  <rect x="40" y="316" width="950" height="340" rx="12" fill="#1a1b23" filter="url(#shadow)" stroke="#374151" stroke-width="1"/>
  <text x="64" y="348" fill="#fff" font-family="system-ui,sans-serif" font-size="15" font-weight="600">⌨️ Code Stage 配置</text>
  <rect x="220" y="330" width="60" height="24" rx="4" fill="#6366f1" opacity="0.15"/>
  <text x="232" y="347" fill="#6366f1" font-family="system-ui,sans-serif" font-size="11">Selected</text>

  <!-- Agent Role -->
  <text x="64" y="384" fill="#9ca3af" font-family="system-ui,sans-serif" font-size="12">Agent Role</text>
  <rect x="64" y="392" width="300" height="36" rx="8" fill="#0f1117" stroke="#374151" stroke-width="1"/>
  <text x="80" y="415" fill="#fff" font-family="system-ui,sans-serif" font-size="13">Developer</text>
  <text x="340" y="415" fill="#6b7280" font-family="system-ui,sans-serif" font-size="12">▼</text>

  <!-- Gate Mode -->
  <text x="400" y="384" fill="#9ca3af" font-family="system-ui,sans-serif" font-size="12">Gate Mode</text>
  <rect x="400" y="392" width="80" height="36" rx="8" fill="#6366f1"/>
  <text x="424" y="415" fill="#fff" font-family="system-ui,sans-serif" font-size="13">Auto</text>
  <rect x="484" y="392" width="90" height="36" rx="8" fill="transparent" stroke="#374151" stroke-width="1"/>
  <text x="504" y="415" fill="#6b7280" font-family="system-ui,sans-serif" font-size="13">Manual</text>

  <!-- Timeout -->
  <text x="610" y="384" fill="#9ca3af" font-family="system-ui,sans-serif" font-size="12">Timeout</text>
  <rect x="610" y="392" width="120" height="36" rx="8" fill="#0f1117" stroke="#374151" stroke-width="1"/>
  <text x="626" y="415" fill="#fff" font-family="system-ui,sans-serif" font-size="13">300s</text>

  <!-- Prompt Template -->
  <text x="64" y="454" fill="#9ca3af" font-family="system-ui,sans-serif" font-size="12">Prompt Template</text>
  <rect x="64" y="462" width="666" height="100" rx="8" fill="#0f1117" stroke="#374151" stroke-width="1"/>
  <text x="80" y="486" fill="#9ca3af" font-family="system-ui,sans-serif" font-size="12">You are a senior developer. Implement the feature described in</text>
  <text x="80" y="504" fill="#9ca3af" font-family="system-ui,sans-serif" font-size="12">{{spec}}. Follow the design from {{design}}. Write clean,</text>
  <text x="80" y="522" fill="#9ca3af" font-family="system-ui,sans-serif" font-size="12">well-tested code with proper error handling...</text>

  <!-- Dependencies -->
  <text x="64" y="588" fill="#9ca3af" font-family="system-ui,sans-serif" font-size="12">Dependencies</text>
  <rect x="80" y="598" width="14" height="14" rx="3" fill="#6366f1"/>
  <text x="80" y="609" fill="#fff" font-family="system-ui,sans-serif" font-size="10" text-anchor="middle" dx="7">✓</text>
  <text x="104" y="610" fill="#fff" font-family="system-ui,sans-serif" font-size="12">Spec (Stage 1)</text>

  <rect x="220" y="598" width="14" height="14" rx="3" fill="#6366f1"/>
  <text x="220" y="609" fill="#fff" font-family="system-ui,sans-serif" font-size="10" text-anchor="middle" dx="7">✓</text>
  <text x="244" y="610" fill="#fff" font-family="system-ui,sans-serif" font-size="12">Design (Stage 2)</text>

  <rect x="380" y="598" width="14" height="14" rx="3" fill="transparent" stroke="#374151" stroke-width="1"/>
  <text x="404" y="610" fill="#6b7280" font-family="system-ui,sans-serif" font-size="12">Test (Stage 4)</text>

  <rect x="520" y="598" width="14" height="14" rx="3" fill="transparent" stroke="#374151" stroke-width="1"/>
  <text x="544" y="610" fill="#6b7280" font-family="system-ui,sans-serif" font-size="12">Deploy (Stage 5)</text>

  <!-- Right Sidebar: Stage Palette -->
  <rect x="1010" y="80" width="170" height="576" rx="12" fill="#1a1b23" filter="url(#shadow)" stroke="#374151" stroke-width="1"/>
  <text x="1034" y="112" fill="#fff" font-family="system-ui,sans-serif" font-size="14" font-weight="600">可用 Stage</text>
  <text x="1034" y="130" fill="#6b7280" font-family="system-ui,sans-serif" font-size="11">拖拽添加到流程</text>

  <!-- Palette items -->
  <rect x="1024" y="146" width="142" height="38" rx="8" fill="#0f1117" stroke="#374151" stroke-width="0.5"/>
  <text x="1040" y="170" fill="#9ca3af" font-family="system-ui,sans-serif" font-size="13">🎯 Spec</text>

  <rect x="1024" y="192" width="142" height="38" rx="8" fill="#0f1117" stroke="#374151" stroke-width="0.5"/>
  <text x="1040" y="216" fill="#9ca3af" font-family="system-ui,sans-serif" font-size="13">🎨 Design</text>

  <rect x="1024" y="238" width="142" height="38" rx="8" fill="#0f1117" stroke="#374151" stroke-width="0.5"/>
  <text x="1040" y="262" fill="#9ca3af" font-family="system-ui,sans-serif" font-size="13">⌨️ Code</text>

  <rect x="1024" y="284" width="142" height="38" rx="8" fill="#0f1117" stroke="#374151" stroke-width="0.5"/>
  <text x="1040" y="308" fill="#9ca3af" font-family="system-ui,sans-serif" font-size="13">🔍 Test</text>

  <rect x="1024" y="330" width="142" height="38" rx="8" fill="#0f1117" stroke="#374151" stroke-width="0.5"/>
  <text x="1040" y="354" fill="#9ca3af" font-family="system-ui,sans-serif" font-size="13">🚀 Deploy</text>

  <rect x="1024" y="376" width="142" height="38" rx="8" fill="#0f1117" stroke="#374151" stroke-width="0.5"/>
  <text x="1040" y="400" fill="#9ca3af" font-family="system-ui,sans-serif" font-size="13">📝 Review</text>

  <rect x="1024" y="422" width="142" height="38" rx="8" fill="#0f1117" stroke="#374151" stroke-width="0.5"/>
  <text x="1040" y="446" fill="#9ca3af" font-family="system-ui,sans-serif" font-size="13">🌍 i18n</text>

  <rect x="1024" y="468" width="142" height="38" rx="8" fill="#0f1117" stroke="#374151" stroke-width="0.5"/>
  <text x="1040" y="492" fill="#9ca3af" font-family="system-ui,sans-serif" font-size="13">🗄️ Migration</text>

  <rect x="1024" y="514" width="142" height="38" rx="8" fill="#0f1117" stroke="#374151" stroke-width="0.5"/>
  <text x="1040" y="538" fill="#9ca3af" font-family="system-ui,sans-serif" font-size="13">📚 Doc</text>

  <rect x="1024" y="560" width="142" height="38" rx="8" fill="#0f1117" stroke="#374151" stroke-width="0.5"/>
  <text x="1040" y="584" fill="#9ca3af" font-family="system-ui,sans-serif" font-size="13">➕ Custom</text>

  <!-- Bottom hint -->
  <rect x="40" y="672" width="1120" height="40" rx="8" fill="#0f1117" stroke="#374151" stroke-width="0.5"/>
  <text x="64" y="697" fill="#6b7280" font-family="system-ui,sans-serif" font-size="12">💡 提示: 点击 Stage 节点上的齿轮图标编辑配置，点击 "+" 在节点间插入新 Stage，拖拽右侧面板的 Stage 到流程中</text>
</svg>